<svg width="305" height="224" viewBox="0 0 305 224" fill="none" xmlns="http://www.w3.org/2000/svg">
<g clip-path="url(#clip0_11585_1753)">
<path d="M29.1428 42.4928L67.3628 80.0928C72.1028 84.7528 70.0128 92.7927 63.6128 94.5627L11.9428 108.863C5.54278 110.633 -0.377226 104.813 1.28277 98.3727L14.7428 46.4728C16.4128 40.0428 24.4128 37.8228 29.1528 42.4828L29.1428 42.4928Z" stroke="#292733" stroke-width="2" stroke-linecap="round" stroke-linejoin="round"/>
<path d="M25.8945 58.75L31.3245 78.38" stroke="#292733" stroke-width="2" stroke-linecap="round" stroke-linejoin="round"/>
<path d="M34.0026 90.3569C35.2618 90.3569 36.2827 89.3361 36.2827 88.0769C36.2827 86.8177 35.2618 85.7969 34.0026 85.7969C32.7434 85.7969 31.7227 86.8177 31.7227 88.0769C31.7227 89.3361 32.7434 90.3569 34.0026 90.3569Z" fill="#292733"/>
<path d="M159.812 12.1328C148.792 23.5028 127.562 39.5028 103.292 53.4028L85.7722 79.2229L103.642 77.9229L67.8922 122.233L92.0022 84.7129L73.7122 94.7429L85.7722 62.7628C72.9022 69.1328 59.6822 74.5628 47.0522 78.1328C43.7322 98.6928 44.3122 118.133 47.0422 135.713L56.2622 136.593L54.3222 143.523L62.4522 142.043L57.5822 158.003L64.3022 165.683L59.7622 175.883L64.7622 176.653L65.0122 193.723C73.7122 212.173 81.9822 223.043 82.2422 223.043C82.2422 223.043 69.2222 107.333 159.812 12.1528V12.1328Z" fill="#292733"/>
<path fill-rule="evenodd" clip-rule="evenodd" d="M200.573 67.26L200.253 8.2301L216.383 64.88L281.383 0L229.853 73.78L304.803 62.75L242.733 93.4601L302.463 141.19L234.543 109.64L260.303 166.17L224.583 119.55L211.113 157.39L209.943 106.08L162.913 157.89L194.133 101.76L122.723 93.9401L198.823 87.3401L144.193 48.27L200.573 67.26Z" fill="white"/>
<path d="M160.793 11.1016C160.793 11.1016 160.733 11.1715 160.703 11.2015C160.403 11.5115 160.113 11.8215 159.813 12.1315C69.2228 107.311 82.2428 223.021 82.2428 223.021C190.383 205.581 236.983 132.361 249.363 95.5115C249.363 95.5115 178.843 80.0516 160.793 11.1016Z" fill="url(#paint0_linear_11585_1753)"/>
<path d="M57.5912 105.969C38.9712 127.319 20.0712 150.019 13.3212 177.539C11.9712 183.029 11.4312 189.619 15.4712 193.569C19.2312 197.249 25.6312 196.879 30.1312 194.149C34.6312 191.419 37.6912 186.889 40.6012 182.499" stroke="#292733" stroke-width="2" stroke-linecap="round" stroke-linejoin="round"/>
<path d="M26.332 187.437C27.842 186.807 42.132 179.767 45.172 197.977C45.822 187.477 46.472 176.977 47.122 166.477C43.802 171.007 31.152 183.117 26.332 187.437Z" fill="#292733"/>
<path fill-rule="evenodd" clip-rule="evenodd" d="M192.084 95.6489C188.454 90.4089 182.334 89.2789 176.204 87.6289C170.024 86.1789 161.964 84.649 156.154 83.819C144.384 81.939 136.214 83.289 128.044 92.439C123.434 97.759 121.364 103.999 119.174 110.869C117.324 116.959 115.504 124.059 114.124 130.299C112.704 136.909 111.134 144.289 115.264 150.189C117.724 154.389 123.134 156.339 127.894 157.889C136.114 160.279 144.424 163.319 152.794 163.499C157.244 163.409 161.294 161.829 165.144 159.469C170.454 156.059 173.894 150.539 177.294 145.229C180.284 140.419 183.854 134.069 186.574 128.889C191.664 118.779 198.804 106.479 192.154 95.7589L192.094 95.6589L192.084 95.6489ZM165.584 134.789C163.444 138.359 162.674 142.119 158.914 143.189C154.444 144.269 149.004 145.459 144.454 146.399C143.974 146.509 143.644 146.569 143.114 146.569C141.184 146.519 140.424 145.109 138.964 143.879C135.854 140.989 130.294 135.539 130.134 135.369C129.544 134.799 129.294 133.809 129.344 133.069C129.444 131.869 130.084 130.489 130.384 129.339C130.574 128.569 130.914 127.869 131.564 127.409C131.924 127.159 132.284 127.059 132.614 127.029C136.194 126.569 139.264 126.179 143.404 125.639C146.204 125.279 149.014 124.909 151.144 124.629C155.084 124.289 155.554 123.449 158.324 124.939C160.034 126.139 163.064 128.289 164.534 129.329C166.524 130.369 166.594 132.909 165.604 134.719L165.574 134.769L165.584 134.789ZM177.234 109.099C175.924 111.549 174.744 114.969 171.894 116.079C169.584 116.829 168.224 116.719 165.344 117.269C156.194 118.699 145.094 120.509 136.114 122.059C134.574 122.469 133.404 122.209 133.324 120.409C133.434 118.919 133.974 118.099 134.424 116.449C135.694 112.499 137.724 106.529 139.154 102.469C139.344 101.929 139.674 101.229 140.034 100.719C141.404 98.649 143.764 97.239 146.214 97.959C150.534 98.689 156.234 99.729 160.894 100.709C166.164 101.799 170.764 102.869 175.024 103.889C177.864 104.179 178.384 106.709 177.254 109.039L177.224 109.089L177.234 109.099Z" fill="white"/>
<mask id="mask0_11585_1753" style="mask-type:luminance" maskUnits="userSpaceOnUse" x="44" y="12" width="116" height="212">
<path d="M159.812 12.1328C148.792 23.5028 127.562 39.5028 103.292 53.4028L85.7722 79.2229L103.642 77.9229L67.8922 122.233L92.0022 84.7129L73.7122 94.7429L85.7722 62.7628C72.9022 69.1328 59.6822 74.5628 47.0522 78.1328C43.7322 98.6928 44.3122 118.133 47.0422 135.713L56.2622 136.593L54.3222 143.523L62.4522 142.043L57.5822 158.003L64.3022 165.683L59.7622 175.883L64.7622 176.653L65.0122 193.723C73.7122 212.173 81.9822 223.043 82.2422 223.043C82.2422 223.043 69.2222 107.333 159.812 12.1528V12.1328Z" fill="white"/>
</mask>
<g mask="url(#mask0_11585_1753)">
<path d="M29.1428 42.4928L67.3628 80.0928C72.1028 84.7528 70.0128 92.7927 63.6128 94.5627L11.9428 108.863C5.54278 110.633 -0.377226 104.813 1.28277 98.3727L14.7428 46.4728C16.4128 40.0428 24.4128 37.8228 29.1528 42.4828L29.1428 42.4928Z" stroke="white" stroke-width="2" stroke-linecap="round" stroke-linejoin="round"/>
</g>
<path d="M56.8711 45.4691C60.4511 38.5791 64.0411 31.6891 67.6211 24.7891" stroke="#292733" stroke-width="2" stroke-linecap="round" stroke-linejoin="round"/>
<path d="M63.793 50.0791C68.043 48.1491 72.283 46.2191 76.533 44.2891" stroke="#292733" stroke-width="2" stroke-linecap="round" stroke-linejoin="round"/>
<path d="M239.834 177.562C239.634 163.533 229.174 151.443 215.314 149.243C208.414 148.143 201.814 149.522 196.294 152.642L183.544 146.562L187.874 159.792C183.834 164.822 181.404 171.242 181.454 178.312C181.564 193.392 192.864 205.693 207.884 207.103C225.134 208.733 240.084 195.092 239.834 177.552V177.562Z" stroke="#292733" stroke-width="2" stroke-linecap="round" stroke-linejoin="round"/>
<path d="M199.895 179.386L204.924 186.956C205.924 188.456 208.135 188.446 209.125 186.936L222.005 167.156" stroke="#292733" stroke-width="2" stroke-linecap="round" stroke-linejoin="round"/>
<mask id="mask1_11585_1753" style="mask-type:luminance" maskUnits="userSpaceOnUse" x="81" y="11" width="169" height="213">
<path d="M249.363 95.5115C236.983 132.361 190.383 205.581 82.2428 223.021C82.2428 223.021 69.2228 107.311 159.813 12.1315C160.113 11.8215 160.403 11.5115 160.703 11.2015C160.733 11.1715 160.763 11.1316 160.793 11.1016C178.843 80.0516 249.363 95.5115 249.363 95.5115Z" fill="white"/>
</mask>
<g mask="url(#mask1_11585_1753)">
<path d="M239.834 177.562C239.634 163.533 229.174 151.443 215.314 149.243C208.414 148.143 201.814 149.522 196.294 152.642L183.544 146.562L187.874 159.792C183.834 164.822 181.404 171.242 181.454 178.312C181.564 193.392 192.864 205.693 207.884 207.103C225.134 208.733 240.084 195.092 239.834 177.552V177.562Z" stroke="white" stroke-width="2" stroke-linecap="round" stroke-linejoin="round"/>
</g>
<path d="M141.961 188.506C137.661 195.426 136.151 204.036 137.851 212.006C138.591 215.496 140.601 219.406 144.151 219.746C147.831 220.096 150.541 216.416 151.971 213.006C155.421 204.736 156.071 195.326 153.771 186.656C151.041 195.206 155.881 205.456 164.221 208.786" stroke="#292733" stroke-width="2" stroke-linecap="round" stroke-linejoin="round"/>
</g>
<defs>
<linearGradient id="paint0_linear_11585_1753" x1="74.4528" y1="221.301" x2="206.093" y2="58.8015" gradientUnits="userSpaceOnUse">
<stop stop-color="#3183FF"/>
<stop offset="1" stop-color="#ABF3FF"/>
</linearGradient>
<clipPath id="clip0_11585_1753">
<rect width="305" height="224" fill="white"/>
</clipPath>
</defs>
</svg>
